<svg xmlns="http://www.w3.org/2000/svg" viewBox="0 0 73 49"><g fill="#EB463D"><path d="M16.3 35.57c1.9 0 3.54.7 4.73 2h.11v.12h.12v.12h.12v.12h.12v.12h.12v.11l.11.12v.12h.12v.12l.12.11v.12h.12V39h.12v.12l.12.11v.12l.11.12V39.69h.12v.24h.12v.35h.12v.36l.12.11v.36H46.42v-.12h.24l.12-.12H47v-.12h.12v-.11h.24v-.12h.12v-.12h.11v-.12c.6-.47.83-1.17.83-2V5.18c0-.82-.24-1.53-.83-2a2.85 2.85 0 00-2-.82H5.2c-.83 0-1.54.35-2.01.82a2.84 2.84 0 00-.83 2v33.1c0 .83.36 1.53.83 2 .47.6 1.18.83 2 .83h4.38l.12-.12v-.47h.11v-.35h.12v-.36h.12V39.58h.12v-.24l.12-.12v-.11h.11v-.24h.12v-.24h.12v-.11l.12-.12v-.12h.12v-.12h.12v-.11h.11v-.12l.12-.12.12-.12.12-.12a6.7 6.7 0 014.84-2zM54.93 15.9h6.61c.36 0 .71.35.95.7l4.72 10.02c.24.59 0 1.18-.47 1.41h-.47l-11.34.12c-.48 0-.95-.47-.95-1.06V16.96c0-.59.47-1.06.95-1.06zm5.9 2H56v8.25h8.74l-3.9-8.25zm-46.3 7.3H41.7v2.36H14.53v-2.35zm17.36-8.47h9.8v2.35h-9.8v-2.35zM50.8 10h12.76c1.3 0 2.13.47 2.84 1.3.59.7.94 1.53 1.3 2.35L73 25.56v13.78a4.4 4.4 0 01-1.18 2.95 4.73 4.73 0 01-3.07 1.17h-1.3a7.26 7.26 0 01-1.9 3.66A6.6 6.6 0 0160.84 49 7.1 7.1 0 0156 47.12a8.33 8.33 0 01-1.89-3.66H22.92a7.26 7.26 0 01-1.9 3.66C19.85 48.29 18.2 49 16.3 49s-3.54-.7-4.84-1.88a8.33 8.33 0 01-1.9-3.66H5.2a5.19 5.19 0 01-3.66-1.53A4.77 4.77 0 010 38.28V5.18c0-1.41.6-2.7 1.54-3.65S3.78 0 5.2 0h40.4C47 0 48.3.59 49.26 1.53s1.53 2.24 1.53 3.65v4.83zm12.76 2.36H50.79V39.22l-.12.12v.35l-.11.12v.36h-.12V40.4h-.12v.24h-.12V40.87h-.12v.24h-.11 4.13l.12-.12v-.47h.12v-.35h.11v-.36h.12V39.58h.12v-.24h.12V39.11h.12v-.24h.12v-.24h.11v-.11l.12-.12.12-.12v-.12h.12v-.11h.12v-.12h.11v-.12l.12-.12.12-.12a6.7 6.7 0 014.84-2c1.9 0 3.55.7 4.73 2h.12v.12h.11v.12h.12v.12h.12v.12h.12v.11l.12.12v.12h.12v.12h.11V38.75h.12V39h.12v.12l.12.11v.12l.12.12V39.69h.11v.24h.12v.35h.12v.36l.12.11v.36h1.3c.59 0 1.06-.12 1.3-.47.35-.36.59-.83.59-1.3v-13.3L65.56 14.6c-.36-.6-.71-1.3-1.06-1.77-.24-.24-.48-.47-.95-.47zm.35 26.85v-.11h-.11v-.12h-.12v-.12h-.12v-.12h-.24v-.12h-.11v-.11h-.24v-.12h-.24v-.12H62.5v-.12h-.36v-.11h-.47v-.12h-.83c-1.18 0-2.36.47-3.19 1.3-.7.7-1.18 1.88-1.18 3.06V42.52a3.9 3.9 0 001.18 2.83c.83.82 2.01 1.3 3.2 1.3s2.24-.48 3.06-1.3c.83-.7 1.3-1.89 1.3-3.06v-.83l-.11-.12V41h-.12v-.35h-.12v-.24h-.12V40.17h-.12v-.12l-.11-.12v-.12h-.12v-.12l-.12-.11v-.12h-.12v-.12h-.12v-.12h-.12zm-44.53 0v-.11h-.12v-.12h-.11v-.12h-.12l-.12-.12h-.12v-.12h-.12v-.11H18.43v-.12h-.24v-.12h-.24v-.12h-.35v-.11h-.47v-.12h-.83c-1.3 0-2.36.47-3.19 1.3-.7.7-1.3 1.88-1.3 3.06l.12.11v.12a3.9 3.9 0 001.18 2.83c.83.82 1.9 1.3 3.2 1.3a4.3 4.3 0 003.06-1.3c.83-.7 1.3-1.89 1.3-3.06v-.71l-.12-.12V41h-.11v-.24l-.12-.11v-.24h-.12V40.17h-.12v-.12l-.12-.12v-.12h-.12v-.12l-.11-.11v-.12h-.12v-.12h-.12v-.12h-.12z" fill="#eb463d"/></g></svg>